HIERARCHY
ROOT hip
{
  OFFSET 0 0 0
  CHANNELS 6 Xposition Yposition Zposition Zrotation Yrotation Xrotation
  JOINT abdomen
  {
    OFFSET 0 20.6881 -0.73152
    CHANNELS 3 Zrotation Xrotation Yrotation
    JOINT chest
    {
      OFFSET 0 11.7043 -0.48768
      CHANNELS 3 Zrotation Xrotation Yrotation
      JOINT neck
      {
        OFFSET 0 22.1894 -2.19456
        CHANNELS 3 Zrotation Xrotation Yrotation
        JOINT head
        {
          OFFSET -0.24384 7.07133 1.2192
          CHANNELS 3 Zrotation Xrotation Yrotation
          JOINT leftEye
          {
            OFFSET 4.14528 8.04674 8.04672
            CHANNELS 3 Zrotation Xrotation Yrotation
            End Site
            {
              OFFSET 1 0 0
            }
          }
          JOINT rightEye
          {
            OFFSET -3.6576 8.04674 8.04672
            CHANNELS 3 Zrotation Xrotation Yrotation
            End Site
            {
              OFFSET 1 0 0
            }
          }
        }
      }
      JOINT rCollar
      {
        OFFSET -2.68224 19.2634 -4.8768
        CHANNELS 3 Zrotation Xrotation Yrotation
        JOINT rShldr
        {
          OFFSET -8.77824 -1.95073 1.46304
          CHANNELS 3 Zrotation Xrotation Yrotation
          JOINT rForeArm
          {
            OFFSET -28.1742 -1.7115 0.48768
            CHANNELS 3 Zrotation Xrotation Yrotation
            JOINT rHand
            {
              OFFSET -22.5879 0.773209 7.07136
              CHANNELS 3 Zrotation Xrotation Yrotation
              JOINT rThumb1
              {
                OFFSET -1.2192 -0.487915 3.41376
                CHANNELS 3 Zrotation Xrotation Yrotation
                JOINT rThumb2
                {
                  OFFSET -3.37035 -0.52449 3.41376
                  CHANNELS 3 Zrotation Xrotation Yrotation
                  End Site
                  {
                    OFFSET -1.78271 -1.18214 1.43049
                  }
                }
              }
              JOINT rIndex1
              {
                OFFSET -7.75947 0.938293 5.60832
                CHANNELS 3 Zrotation Xrotation Yrotation
                JOINT rIndex2
                {
                  OFFSET -2.54057 -0.884171 1.56538
                  CHANNELS 3 Zrotation Xrotation Yrotation
                  End Site
                  {
                    OFFSET -1.62519 -0.234802 1.16502
                  }
                }
              }
              JOINT rMid1
              {
                OFFSET -8.24714 1.18213 3.41376
                CHANNELS 3 Zrotation Xrotation Yrotation
                JOINT rMid2
                {
                  OFFSET -3.10165 -0.590103 1.0647
                  CHANNELS 3 Zrotation Xrotation Yrotation
                  End Site
                  {
                    OFFSET -2.48547 -0.328903 0.83742
                  }
                }
              }
              JOINT rRing1
              {
                OFFSET -8.82822 0.546677 1.51678
                CHANNELS 3 Zrotation Xrotation Yrotation
                JOINT rRing2
                {
                  OFFSET -2.60934 -0.819778 -0.0198488
                  CHANNELS 3 Zrotation Xrotation Yrotation
                  End Site
                  {
                    OFFSET -2.33842 -0.294052 0.168128
                  }
                }
              }
              JOINT rPinky1
              {
                OFFSET -8.27202 -0.0477905 -0.4584
                CHANNELS 3 Zrotation Xrotation Yrotation
                JOINT rPinky2
                {
                  OFFSET -1.82734 -0.647385 -0.700984
                  CHANNELS 3 Zrotation Xrotation Yrotation
                  End Site
                  {
                    OFFSET -1.69225 -0.51767 -0.607171
                  }
                }
              }
            }
          }
        }
      }
      JOINT lCollar
      {
        OFFSET 2.68224 19.2634 -4.8768
        CHANNELS 3 Zrotation Xrotation Yrotation
        JOINT lShldr
        {
          OFFSET 8.77824 -1.95073 1.46304
          CHANNELS 3 Zrotation Xrotation Yrotation
          JOINT lForeArm
          {
            OFFSET 28.1742 -1.7115 0.48768
            CHANNELS 3 Zrotation Xrotation Yrotation
            JOINT lHand
            {
              OFFSET 22.5879 0.773209 7.07136
              CHANNELS 3 Zrotation Xrotation Yrotation
              JOINT lThumb1
              {
                OFFSET 1.2192 -0.487915 3.41376
                CHANNELS 3 Zrotation Xrotation Yrotation
                JOINT lThumb2
                {
                  OFFSET 3.37035 -0.52449 3.41376
                  CHANNELS 3 Zrotation Xrotation Yrotation
                  End Site
                  {
                    OFFSET 1.78271 -1.18214 1.43049
                  }
                }
              }
              JOINT lIndex1
              {
                OFFSET 7.75947 0.938293 5.60832
                CHANNELS 3 Zrotation Xrotation Yrotation
                JOINT lIndex2
                {
                  OFFSET 2.54057 -0.884171 1.56538
                  CHANNELS 3 Zrotation Xrotation Yrotation
                  End Site
                  {
                    OFFSET 1.62519 -0.234802 1.16502
                  }
                }
              }
              JOINT lMid1
              {
                OFFSET 8.24714 1.18213 3.41376
                CHANNELS 3 Zrotation Xrotation Yrotation
                JOINT lMid2
                {
                  OFFSET 3.10165 -0.590103 1.0647
                  CHANNELS 3 Zrotation Xrotation Yrotation
                  End Site
                  {
                    OFFSET 2.48547 -0.328903 0.83742
                  }
                }
              }
              JOINT lRing1
              {
                OFFSET 8.82822 0.546677 1.51678
                CHANNELS 3 Zrotation Xrotation Yrotation
                JOINT lRing2
                {
                  OFFSET 2.60934 -0.819778 -0.0198488
                  CHANNELS 3 Zrotation Xrotation Yrotation
                  End Site
                  {
                    OFFSET 2.33842 -0.294052 0.168128
                  }
                }
              }
              JOINT lPinky1
              {
                OFFSET 8.27202 -0.0477905 -0.4584
                CHANNELS 3 Zrotation Xrotation Yrotation
                JOINT lPinky2
                {
                  OFFSET 1.82734 -0.647385 -0.700984
                  CHANNELS 3 Zrotation Xrotation Yrotation
                  End Site
                  {
                    OFFSET 1.69225 -0.51767 -0.607171
                  }
                }
              }
            }
          }
        }
      }
    }
  }
  JOINT rButtock
  {
    OFFSET -8.77824 4.35084 1.2192
    CHANNELS 3 Zrotation Xrotation Yrotation
    JOINT rThigh
    {
      OFFSET 0 -1.70687 -2.19456
      CHANNELS 3 Zrotation Xrotation Yrotation
      JOINT rShin
      {
        OFFSET 0 -36.8199 0.73152
        CHANNELS 3 Zrotation Xrotation Yrotation
        JOINT rFoot
        {
          OFFSET 0.73152 -45.1104 -5.12064
          CHANNELS 3 Zrotation Xrotation Yrotation
          End Site
          {
            OFFSET -1.1221 -3.69964 12.103
          }
        }
      }
    }
  }
  JOINT lButtock
  {
    OFFSET 8.77824 4.35084 1.2192
    CHANNELS 3 Zrotation Xrotation Yrotation
    JOINT lThigh
    {
      OFFSET 0 -1.70687 -2.19456
      CHANNELS 3 Zrotation Xrotation Yrotation
      JOINT lShin
      {
        OFFSET 0 -36.8199 0.73152
        CHANNELS 3 Zrotation Xrotation Yrotation
        JOINT lFoot
        {
          OFFSET -0.73152 -45.1104 -5.12064
          CHANNELS 3 Zrotation Xrotation Yrotation
          End Site
          {
            OFFSET 1.1221 -3.69964 12.103
          }
        }
      }
    }
  }
}
MOTION
Frames:	7
Frame Time:	0.00833333
181.421 84.7658 37.6333 0.0 0.0 0.0 -0.385199 -0.00168811 -0.0109959 -0.106235 -0.00256709 -0.018405 -3.28986e-15 -1.59028e-15 -6.21202e-17 -9.94545e-15 3.18055e-15 -1.87914e-16 -0.0 0.0 0.0 -0.0 0.0 0.0 -1.69107e-15 -3.10601e-18 9.93923e-17 -3.18311e-14 -7.3923e-16 0.0 -5.96602e-13 1.72545e-13 1.27222e-14 -6.84134e-12 -2.12774e-13 -1.62208e-13 -1.61392e-11 -7.93618e-14 -3.21236e-13 -2.78799e-11 -1.39944e-13 -5.55802e-13 -1.6135e-11 -7.83212e-14 -3.24417e-13 7.73091 5.47488 0.417314 -1.61396e-11 -7.9812e-14 -3.18055e-13 2.90554 0.965183 0.102902 -1.61313e-11 -7.91163e-14 -3.18851e-13 10.2786 0.731801 0.0259123 -1.61471e-11 -7.67309e-14 -3.11694e-13 2.22167 -0.733487 -0.20892 -1.68838e-15 -3.88251e-18 -1.98785e-16 -3.69606e-14 -2.42269e-16 -1.59028e-15 -5.95559e-13 -1.82484e-13 -4.13472e-14 -6.8482e-12 1.60792e-13 -1.01778e-13 -1.61479e-11 -4.55213e-14 -3.21236e-13 -2.78784e-11 -7.95139e-14 -5.40694e-13 -1.61521e-11 -4.37326e-14 -3.05333e-13 -7.73091 5.47488 -0.417314 -1.61484e-11 -4.52235e-14 -3.14875e-13 -2.90554 0.965183 -0.102902 -1.61577e-11 -4.47266e-14 -3.14875e-13 -10.2786 0.731801 -0.0259123 -1.61389e-11 -4.37326e-14 -3.27597e-13 -2.22167 -0.733487 0.20892 -2.03217e-16 0.0 -3.88251e-19 0.221696 -2.58355 -0.0280819 -0.00748992 -0.872638 -0.065143 -0.513159 3.45577 0.129354 2.03217e-16 0.0 3.88251e-19 -0.807729 -4.07085 0.0653897 0.00325542 1.8214 0.0244289 0.517662 2.2491 -0.105174
175.464 81.5173 31.2064 168.675 -82.9166 -167.47 -2.27067 0.861597 -1.68076 0.200477 -1.21618 -0.495245 -1.28845 -1.76484 -0.632882 2.70716 -2.09855 -0.583603 -0.0 0.0 0.0 -0.0 0.0 0.0 4.65794e-14 -4.52782e-13 -2.50942e-14 20.338 4.08329 -4.07848 -4.13055 -1.85937 6.47029 0.0322172 3.98328 0.554938 -4.80926e-10 -8.40301e-11 -1.03811e-10 -8.32096e-10 -1.53363e-10 -1.72915e-10 -4.80922e-10 -8.40329e-11 -1.03816e-10 7.73091 5.47488 0.417314 -4.80926e-10 -8.40298e-11 -1.03809e-10 2.90554 0.965183 0.102902 -4.80919e-10 -8.40293e-11 -1.03809e-10 10.2786 0.731801 0.0259123 -4.80932e-10 -8.40268e-11 -1.03804e-10 2.22167 -0.733487 -0.20892 4.65986e-14 -4.52783e-13 -2.53563e-14 -22.1854 10.8911 -4.10622 11.6589 -8.58008 -13.2657 -0.00107884 -0.72892 0.102413 -4.08551e-10 -2.26032e-10 3.9972e-11 -7.06306e-10 -3.90144e-10 6.83279e-11 -4.0856e-10 -2.26035e-10 3.999e-11 -7.73091 5.47488 -0.417314 -4.08552e-10 -2.26032e-10 3.99766e-11 -2.90554 0.965183 -0.102902 -4.08559e-10 -2.26032e-10 3.99771e-11 -10.2786 0.731801 -0.0259123 -4.08544e-10 -2.2603e-10 3.99647e-11 -2.22167 -0.733487 0.20892 -2.03217e-16 0.0 -3.88251e-19 -2.71612 -17.5833 -2.50728 -0.807772 18.7214 -0.0151628 2.9393 -39.064 3.99624 2.03217e-16 0.0 3.88251e-19 -3.03157 -7.46946 -0.14307 -0.161022 9.65202 -0.273665 0.575434 -1.56779 -0.200158
174.554 81.7799 31.277 164.934 -83.2812 -164.01 -4.20962 1.74313 -3.39502 0.483294 -2.48211 -0.988435 -2.69625 -3.62808 -1.31213 5.53153 -4.31945 -1.21759 -0.0 0.0 0.0 -0.0 0.0 0.0 9.66023e-14 -9.39586e-13 -5.11808e-14 42.4868 8.31886 -8.41438 -8.04388 -3.7461 13.3324 -0.018398 8.19073 1.15026 -1.02016e-09 -2.46042e-10 -1.18076e-10 -1.76394e-09 -4.42445e-10 -1.90007e-10 -1.02016e-09 -2.46049e-10 -1.18082e-10 7.73091 5.47488 0.417314 -1.02016e-09 -2.46041e-10 -1.18076e-10 2.90554 0.965183 0.102902 -1.02015e-09 -2.4604e-10 -1.18076e-10 10.2786 0.731801 0.0259123 -1.02016e-09 -2.46038e-10 -1.18073e-10 2.22167 -0.733487 -0.20892 9.66414e-14 -9.39586e-13 -5.14076e-14 -43.8797 22.2052 -8.88419 19.6645 -16.0744 -28.1603 0.000617718 -1.50203 0.211091 -8.96715e-10 -5.26943e-10 1.96516e-10 -1.55064e-09 -9.09831e-10 3.38097e-10 -8.96728e-10 -5.26951e-10 1.96536e-10 -7.73091 5.47488 -0.417314 -8.96715e-10 -5.26944e-10 1.96519e-10 -2.90554 0.965183 -0.102902 -8.9672e-10 -5.26943e-10 1.9652e-10 -10.2786 0.731801 -0.0259123 -8.9671e-10 -5.26942e-10 1.96507e-10 -2.22167 -0.733487 0.20892 -2.03217e-16 0.0 -3.88251e-19 -7.47665 -33.1724 -5.79819 -1.71079 39.5006 0.0511301 48.2722 -81.4544 47.1926 2.03217e-16 0.0 3.88251e-19 -5.40601 -11.1409 -0.341882 -0.240159 17.9802 -0.603451 0.621374 -5.59907 -0.294869
173.648 82.0474 31.3631 160.036 -83.7809 -159.432 -5.89075 2.57934 -5.02482 0.7532 -3.64238 -1.45152 -3.98271 -5.29192 -1.90587 7.99258 -6.29302 -1.76024 -0.0 0.0 0.0 -0.0 0.0 0.0 1.4312e-13 -1.35834e-12 -7.54815e-14 62.7761 11.9991 -12.4813 -11.1541 -5.29413 19.4871 -0.139154 11.9453 1.69756 -1.4105e-09 -2.51931e-10 -3.10789e-10 -2.44053e-09 -4.59809e-10 -5.17634e-10 -1.4105e-09 -2.51942e-10 -3.10798e-10 7.73091 5.47488 0.417314 -1.4105e-09 -2.5193e-10 -3.10792e-10 2.90554 0.965183 0.102902 -1.41049e-09 -2.5193e-10 -3.10791e-10 10.2786 0.731801 0.0259123 -1.4105e-09 -2.51927e-10 -3.10789e-10 2.22167 -0.733487 -0.20892 1.43172e-13 -1.35834e-12 -7.56713e-14 -61.2092 31.9405 -14.2968 23.5259 -20.1381 -42.4737 0.00458572 -2.18673 0.307438 -1.19336e-09 -6.78005e-10 1.20558e-10 -2.06316e-09 -1.17027e-09 2.06065e-10 -1.19337e-09 -6.78017e-10 1.20581e-10 -7.73091 5.47488 -0.417314 -1.19336e-09 -6.78006e-10 1.2056e-10 -2.90554 0.965183 -0.102902 -1.19336e-09 -6.78005e-10 1.20561e-10 -10.2786 0.731801 -0.0259123 -1.19335e-09 -6.78004e-10 1.20549e-10 -2.22167 -0.733487 0.20892 -2.03217e-16 0.0 -3.88251e-19 -14.0526 -47.1488 -10.4921 -2.56396 57.9093 0.164118 169.289 -54.6604 164.225 2.03217e-16 0.0 3.88251e-19 -7.55555 -14.266 -0.573711 -0.222881 25.3105 -0.949348 0.652475 -9.20141 -0.395149
172.771 82.2932 31.3721 156.454 -84.3523 -156.219 -7.01714 3.30858 -6.44022 1.02984 -4.53931 -1.83721 -4.88061 -6.45983 -2.27878 9.64189 -7.65103 -2.06498 -0.0 0.0 0.0 -0.0 0.0 0.0 1.80876e-13 -1.60698e-12 -9.53172e-14 77.2055 14.5154 -15.6503 -13.1203 -6.26601 23.8003 -0.267728 14.5721 2.09377 -1.42861e-09 1.32483e-10 -9.49625e-10 -2.47895e-09 2.02121e-10 -1.6216e-09 -1.4286e-09 1.32471e-10 -9.49634e-10 7.73091 5.47488 0.417314 -1.42861e-09 1.32485e-10 -9.49628e-10 2.90554 0.965183 0.102902 -1.4286e-09 1.32485e-10 -9.49626e-10 10.2786 0.731801 0.0259123 -1.42861e-09 1.32488e-10 -9.49625e-10 2.22167 -0.733487 -0.20892 1.80924e-13 -1.60697e-12 -9.54663e-14 -71.4339 38.3451 -19.5181 24.9519 -20.993 -52.7791 0.00862334 -2.65043 0.372763 -1.0112e-09 -4.54444e-10 -5.36652e-10 -1.74618e-09 -7.82598e-10 -9.30473e-10 -1.01122e-09 -4.54457e-10 -5.3663e-10 -7.73091 5.47488 -0.417314 -1.0112e-09 -4.54444e-10 -5.36652e-10 -2.90554 0.965183 -0.102902 -1.0112e-09 -4.54444e-10 -5.3665e-10 -10.2786 0.731801 -0.0259123 -1.01119e-09 -4.54442e-10 -5.36661e-10 -2.22167 -0.733487 0.20892 -2.03217e-16 0.0 -3.88251e-19 -21.6997 -57.3868 -16.651 -3.21024 70.3916 0.356786 177.15 -27.2542 167.701 2.03217e-16 0.0 3.88251e-19 -9.09895 -16.0257 -0.878221 -0.153473 30.1485 -1.26347 0.669156 -11.7315 -0.505276
171.902 82.5544 31.3974 152.073 -84.8802 -152.162 -7.41488 3.90742 -7.57838 1.33228 -5.07131 -2.11993 -5.19282 -6.93312 -2.33238 10.1951 -8.15464 -2.02101 -0.0 0.0 0.0 -0.0 0.0 0.0 2.14194e-13 -1.63188e-12 -1.12413e-13 82.8711 15.5501 -17.4022 -13.837 -6.60994 25.4734 -0.330888 15.6571 2.26125 -8.06005e-10 1.29984e-09 -2.5383e-09 -1.42096e-09 2.22476e-09 -4.37635e-09 -8.06001e-10 1.29983e-09 -2.53831e-09 7.73091 5.47488 0.417314 -8.06007e-10 1.29984e-09 -2.5383e-09 2.90554 0.965183 0.102902 -8.05999e-10 1.29984e-09 -2.5383e-09 10.2786 0.731801 0.0259123 -8.06006e-10 1.29984e-09 -2.5383e-09 2.22167 -0.733487 -0.20892 2.14205e-13 -1.63188e-12 -1.125e-13 -74.0228 40.6209 -22.9524 25.3983 -20.9105 -56.9609 0.0101132 -2.7787 0.390852 4.95441e-11 4.79626e-10 -2.38476e-09 9.33179e-11 8.34548e-10 -4.12529e-09 4.95292e-11 4.79615e-10 -2.38474e-09 -7.73091 5.47488 -0.417314 4.95453e-11 4.79626e-10 -2.38476e-09 -2.90554 0.965183 -0.102902 4.95447e-11 4.79626e-10 -2.38476e-09 -10.2786 0.731801 -0.0259123 4.9549e-11 4.79627e-10 -2.38477e-09 -2.22167 -0.733487 0.20892 -2.03217e-16 0.0 -3.88251e-19 -27.7422 -62.7601 -22.3108 -3.35601 74.4789 0.479869 179.544 -16.6959 167.997 2.03217e-16 0.0 3.88251e-19 -9.78603 -15.8507 -1.29031 -0.119306 31.4902 -1.47844 0.679642 -12.7643 -0.623485
171.049 82.8064 31.3999 147.58 -85.4331 -147.974 -7.29666 4.41271 -8.5172 1.65775 -5.34266 -2.32827 -5.07921 -6.91072 -2.15686 9.97197 -8.04786 -1.72701 -0.0 0.0 0.0 -0.0 0.0 0.0 2.43969e-13 -1.4963e-12 -1.27384e-13 82.1289 15.5832 -18.0929 -13.7405 -6.55873 25.2508 -0.328104 15.6403 2.25833 2.68551e-10 3.01518e-09 -4.78995e-09 4.10517e-10 5.19983e-09 -8.28338e-09 2.68557e-10 3.01517e-09 -4.78996e-09 7.73091 5.47488 0.417314 2.6855e-10 3.01518e-09 -4.78995e-09 2.90554 0.965183 0.102902 2.68558e-10 3.01518e-09 -4.78994e-09 10.2786 0.731801 0.0259123 2.68551e-10 3.01518e-09 -4.78994e-09 2.22167 -0.733487 -0.20892 2.43921e-13 -1.4963e-12 -1.27396e-13 -71.9642 40.1844 -24.5132 25.4427 -21.1343 -56.8827 0.00930343 -2.66862 0.375343 1.72793e-09 1.91234e-09 -5.06554e-09 3.00312e-09 3.31455e-09 -8.75926e-09 1.72792e-09 1.91234e-09 -5.06553e-09 -7.73091 5.47488 -0.417314 1.72793e-09 1.91234e-09 -5.06554e-09 -2.90554 0.965183 -0.102902 1.72793e-09 1.91234e-09 -5.06554e-09 -10.2786 0.731801 -0.0259123 1.72794e-09 1.91234e-09 -5.06555e-09 -2.22167 -0.733487 0.20892 -2.03217e-16 0.0 -3.88251e-19 -30.7419 -64.8886 -25.8542 -2.98966 72.5748 0.40125 179.237 -18.1777 168.267 2.03217e-16 0.0 3.88251e-19 -9.82893 -14.2951 -1.77045 -0.146696 30.3358 -1.60055 0.690753 -12.7274 -0.746101
